<svg width="844" height="546" viewBox="0 0 844 546" fill="none" xmlns="http://www.w3.org/2000/svg">
<path d="M24 225.5L1 184.5L23.5 144.5L117 165.5L167.5 163L204.5 156.5L173 198.5L197 231.5L210 200L246.5 211L263 238.5L240.5 247L248.5 265L204 303L207 326L185.5 307L167 333L186 337.5L207 368L247.5 363.5L275.5 388L311.5 400L296.5 439.5L239 494L239.5 544L216.5 512L230.5 430L204 412.5L207 368L179 349.5L152.5 343.5L104.5 297L105.5 262.5L88 225.5L47.5 204.5L24 225.5Z" fill="#162A4B"/>
<path d="M260.5 245L256 261H272L260.5 245Z" fill="#162A4B"/>
<path d="M208.5 339L199.5 331L223 339H208.5Z" fill="#162A4B"/>
<path d="M226.5 345V339L236 341L226.5 345Z" fill="#162A4B"/>
<path d="M206.5 188L195 194L192.5 182L206.5 188Z" fill="#162A4B"/>
<path d="M204 127L203.5 156L179 142.5L204 127L248 175L231 201.5L204 127Z" fill="#162A4B"/>
<path d="M173.5 140L171 122.5L183.5 123.5L173.5 140Z" fill="#162A4B"/>
<path d="M169.5 131L158 123.5L160 141.5L169.5 131Z" fill="#162A4B"/>
<path d="M145 125L158 154.5L129.5 157L123.5 134L145 125Z" fill="#162A4B"/>
<path d="M123.5 125L104 141L101.5 118L123.5 125Z" fill="#162A4B"/>
<path d="M133 118L124 103L142.5 105.5L133 118Z" fill="#162A4B"/>
<path d="M123.5 89L118.5 103L107.5 101.5L123.5 89Z" fill="#162A4B"/>
<path d="M158 113V96L165.5 105.5L158 113Z" fill="#162A4B"/>
<path d="M173 113V99L201.5 115.5L173 113Z" fill="#162A4B"/>
<path d="M158 68L149 74L161.5 84.5L158 68Z" fill="#162A4B"/>
<path d="M178 84.5L175.5 34L195.5 20.5H247L207 103L178 84.5Z" fill="#162A4B"/>
<path d="M228.5 99L257.5 30.5H279.5L311.5 1L368 37L351 56L339 113L344.5 147L324 161.5L291.5 210L266 169L272 131L228.5 99Z" fill="#162A4B"/>
<path d="M353.5 194.5L337.5 187L346.5 175L365 180L353.5 194.5Z" fill="#162A4B"/>
<path d="M380 241.5L368 247.5L375.5 229.5L380 241.5Z" fill="#162A4B"/>
<path d="M398.5 243.5L384 250.5V216.5L398.5 243.5Z" fill="#162A4B"/>
<path d="M391 272L384 256.5L395.5 255L416 237L446 227.5L450.5 147.5L435 222L412 217.5L416 201L450.5 147.5L481.5 159L488.5 178L467.5 179L480.5 190.5L517 163.5H557.5L551 145.5L562 129.5L583 137.5L612.5 106L635.5 101.5L642.5 89.5L666 111L656 125L701.5 143L733 133.5L775 158L808.5 153.5L809.048 153.975L842.5 183L813.5 189L788 209.5L758 247.5L766 203L716 227L727.5 258L702 273.5L693.5 299.5L675.5 288.5L682 316.5L650.5 337L654 353.5L641.5 367.5L635 378L622.5 353.5L602 332L575.5 368.5L546.5 318.5L531.098 336.883L531 337L503.5 360.5L514 365.5L487.5 397.5L492 424L455.5 477L431 460L419.5 405L415.5 371.5L365 368.5L355 323.5L381 303L420 295.5L446.5 311.5L468.5 299L431 269.5L436 289.5L405.5 273L377 294.5L373.5 274L391 272Z" fill="#162A4B"/>
<path d="M498.5 448.5V429.5L512 416.5L513 424L508.5 442L498.5 448.5Z" fill="#162A4B"/>
<path d="M527.5 149L518 128.5L535 103L562 97L532.799 116.5L527.5 149Z" fill="#162A4B"/>
<path d="M642.5 78L628 84.5L633.5 67L642.5 78Z" fill="#162A4B"/>
<path d="M631 60.5L624 76L617 59L631 60.5Z" fill="#162A4B"/>
<path d="M625 55.5H608.5L622.5 42L625 55.5Z" fill="#162A4B"/>
<path d="M719.5 101.5V115.5L737.5 111L719.5 101.5Z" fill="#162A4B"/>
<path d="M753 115.5L740.5 113L749.5 108L753 115.5Z" fill="#162A4B"/>
<path d="M736 255.5L732 261L728.5 240L736 255.5Z" fill="#162A4B"/>
<path d="M728 281L728.5 297L702 308.5L715 294.75L728 281Z" fill="#162A4B"/>
<path d="M684.5 356H678.5V343.5L684.5 356Z" fill="#162A4B"/>
<path d="M692 371.5L681.5 369.5L687.5 358.5L692 371.5Z" fill="#162A4B"/>
<path d="M668 396.5L672 370.5L650.5 388L668 396.5Z" fill="#162A4B"/>
<path d="M676.5 399.5V388L684.5 398.5L676.5 399.5Z" fill="#162A4B"/>
<path d="M679 409.5L656 401.5L645 403.5L679 409.5Z" fill="#162A4B"/>
<path d="M642 387.5V401.5L619.5 375.5L642 387.5Z" fill="#162A4B"/>
<path d="M730 409.5L705 389.5L733 394.5L745.5 409.5H730Z" fill="#162A4B"/>
<path d="M721 425L732.5 421L758 454L745.5 485.5L722.5 483L705.5 464L668.5 473L662 440.5L701 417L721 425Z" fill="#162A4B"/>
<path d="M744 492L740 501.5L732 492H744Z" fill="#162A4B"/>
<path d="M588 371.5L582.5 373.5L583.5 365L588 371.5Z" fill="#162A4B"/>
<path d="M797 511L784.5 508.5L803.5 493.5L806.5 475.5L814 483L803.5 493.5L797 511Z" fill="#162A4B"/>
<path d="M449 94.5L446 84H455.5L449 94.5Z" fill="#162A4B"/>
<path d="M438.5 58.5L450.5 72L458.5 55.5L438.5 58.5Z" fill="#162A4B"/>
<path d="M433 58.5L442 75.5L433.5 101.5L420 66.5L433 58.5Z" fill="#162A4B"/>
<path d="M1 184.5L24 225.5L47.5 204.5M1 184.5L23.5 144.5M1 184.5L47.5 204.5M23.5 144.5L117 165.5M23.5 144.5L47.5 204.5M117 165.5L47.5 204.5M117 165.5C117 166.3 97.6667 205.833 88 225.5M117 165.5L173 198.5M117 165.5L167.5 163M47.5 204.5L88 225.5M88 225.5L105.5 262.5M88 225.5L173 198.5M105.5 262.5L173 198.5M105.5 262.5L104.5 297M105.5 262.5L167 333M105.5 262.5L185.5 307M105.5 262.5L197 231.5M173 198.5L167.5 163M173 198.5L204.5 156.5L167.5 163M173 198.5L197 231.5M197 231.5L185.5 307M197 231.5L210 200L246.5 211M197 231.5L240.5 247M197 231.5L246.5 211M185.5 307L167 333M185.5 307L207 326L204 303M185.5 307L204 303M185.5 307L240.5 247M167 333L152.5 343.5M167 333L104.5 297M167 333L179 349.5M167 333L186 337.5M152.5 343.5L104.5 297M152.5 343.5L179 349.5M246.5 211L263 238.5L240.5 247M246.5 211L240.5 247M240.5 247L248.5 265L204 303M240.5 247L204 303M179 349.5L207 368M179 349.5L186 337.5M186 337.5L207 368M207 368L204 412.5L230.5 430M207 368L230.5 430M207 368L247.5 363.5M230.5 430L247.5 363.5M230.5 430L275.5 388M230.5 430L216.5 512M230.5 430L239 494M230.5 430L296.5 439.5M247.5 363.5L275.5 388M275.5 388L311.5 400L296.5 439.5M275.5 388L296.5 439.5M296.5 439.5L239 494M239 494L239.5 544L216.5 512M239 494L216.5 512M204 127L203.5 156L179 142.5L204 127ZM204 127L231 201.5L248 175L204 127ZM145 125L158 154.5L129.5 157M145 125L123.5 134L129.5 157M145 125L129.5 157M178 84.5L175.5 34L195.5 20.5M178 84.5L207 103M178 84.5L195.5 20.5M195.5 20.5H247L207 103M195.5 20.5L207 103M228.5 99L257.5 30.5M228.5 99L272 131M228.5 99L263 82M257.5 30.5H279.5M257.5 30.5L263 82M279.5 30.5L311.5 1M279.5 30.5L351 56M279.5 30.5L263 82M311.5 1L368 37L351 56M311.5 1L351 56M351 56L339 113M351 56L263 82M339 113L344.5 147M339 113L263 82M344.5 147L324 161.5M344.5 147L263 82M344.5 147L272 131M324 161.5L291.5 210L266 169M324 161.5L272 131M324 161.5L266 169M266 169L272 131M272 131L263 82M353.5 194.5L337.5 187L346.5 175M353.5 194.5L365 180L346.5 175M353.5 194.5L346.5 175M391 272L384 256.5L395.5 255M391 272L373.5 274L377 294.5M391 272L395.5 255M391 272L405.5 273M391 272L377 294.5M377 294.5L405.5 273M405.5 273L436 289.5L431 269.5M405.5 273L395.5 255M405.5 273L416 237M405.5 273L431 269.5M431 269.5L468.5 299M431 269.5L416 237M431 269.5L468.5 260.5M468.5 299L446.5 311.5M468.5 299V260.5M468.5 299L514 301.5M468.5 299L505.5 265M468.5 299L503.5 360.5M446.5 311.5L420 295.5L381 303M446.5 311.5L415.5 371.5M446.5 311.5L381 303M446.5 311.5L461 376.5M446.5 311.5L503.5 360.5M381 303L355 323.5M381 303L415.5 371.5M355 323.5L365 368.5L415.5 371.5M355 323.5L415.5 371.5M415.5 371.5L419.5 405L431 460M415.5 371.5L448.5 413.5M415.5 371.5L461 376.5M431 460L455.5 477M431 460L448.5 413.5M455.5 477L492 424L487.5 397.5M455.5 477L487.5 397.5M455.5 477L448.5 413.5M487.5 397.5L514 365.5L503.5 360.5M487.5 397.5L503.5 360.5M487.5 397.5L461 376.5M487.5 397.5L448.5 413.5M503.5 360.5L531 337L531.098 336.883M503.5 360.5L514 301.5M503.5 360.5L461 376.5M546.5 318.5L575.5 368.5M546.5 318.5L565.5 285M546.5 318.5L514 301.5M546.5 318.5L531.098 336.883M575.5 368.5L602 332M575.5 368.5L565.5 285M602 332L622.5 353.5M602 332L652 246.5M602 332L608.5 228M602 332L565.5 285M622.5 353.5L635 378L641.5 367.5M622.5 353.5L641.5 367.5M622.5 353.5L650.5 337M622.5 353.5L652 246.5M641.5 367.5L654 353.5L650.5 337M641.5 367.5L650.5 337M650.5 337L682 316.5L675.5 288.5M650.5 337L652 246.5M650.5 337L675.5 288.5M675.5 288.5L693.5 299.5L702 273.5M675.5 288.5L652 246.5M675.5 288.5L702 273.5M702 273.5L727.5 258L716 227M702 273.5L716 227M702 273.5L652 246.5M716 227L766 203M716 227L701.5 143M716 227L733 133.5M716 227L652 246.5M766 203L758 247.5L788 209.5M766 203L775 158M766 203L788 209.5M766 203L733 133.5M788 209.5L813.5 189M788 209.5L775 158M788 209.5L808.5 153.5M813.5 189L842.5 183L809.048 153.975M813.5 189L809.048 153.975M808.5 153.5L775 158M808.5 153.5L809.048 153.975M775 158L733 133.5M733 133.5L701.5 143M701.5 143L656 125M701.5 143L592.5 172M701.5 143L608.5 228M701.5 143L652 246.5M656 125L666 111M656 125L635.5 101.5M656 125L617 131M656 125L592.5 172M666 111L642.5 89.5L635.5 101.5M666 111L635.5 101.5M635.5 101.5L612.5 106M635.5 101.5L617 131M612.5 106L583 137.5M612.5 106L617 131M583 137.5L562 129.5L551 145.5M583 137.5L557.5 163.5M583 137.5L551 145.5M583 137.5L592.5 172M583 137.5L617 131M551 145.5L557.5 163.5M557.5 163.5H517M557.5 163.5L546 240M557.5 163.5L592.5 172M517 163.5L480.5 190.5M517 163.5L502.5 219.5M517 163.5L546 240M480.5 190.5L467.5 179M480.5 190.5L446 227.5M480.5 190.5L502.5 219.5M467.5 179L488.5 178L481.5 159M467.5 179L450.5 147.5M467.5 179L481.5 159M467.5 179L446 227.5M481.5 159L450.5 147.5M450.5 147.5L416 201M450.5 147.5L435 222M450.5 147.5L446 227.5M416 201L412 217.5L435 222M416 201L435 222M446 227.5L416 237M446 227.5L468.5 260.5M446 227.5L502.5 219.5M416 237L395.5 255M416 237L468.5 260.5M468.5 260.5L502.5 219.5M468.5 260.5L505.5 265M502.5 219.5L546 240M502.5 219.5L505.5 265M546 240L505.5 265M546 240L514 301.5M546 240L592.5 172M505.5 265L514 301.5M514 301.5L565.5 285M514 301.5L531.098 336.883M592.5 172L617 131M592.5 172L608.5 228M608.5 228L652 246.5M461 376.5L448.5 413.5M498.5 429.5V448.5L508.5 442M498.5 429.5L512 416.5L513 424M498.5 429.5L508.5 442M498.5 429.5L513 424M513 424L508.5 442M535 103L518 128.5L527.5 149L532.799 116.5M535 103L562 97L532.799 116.5M535 103L532.799 116.5M728.5 297L728 281L715 294.75M728.5 297L702 308.5L715 294.75M728.5 297L715 294.75M730 409.5L705 389.5L733 394.5M730 409.5H745.5L733 394.5M730 409.5L733 394.5M721 425L732.5 421L758 454M721 425L705.5 464M721 425L701 417M721 425L758 454M758 454L745.5 485.5L722.5 483M758 454L705.5 464M758 454L722.5 483M722.5 483L705.5 464M705.5 464L668.5 473M705.5 464L701 417M668.5 473L662 440.5L701 417M668.5 473L701 417M803.5 493.5L797 511L784.5 508.5L803.5 493.5ZM803.5 493.5L806.5 475.5L814 483L803.5 493.5ZM442 75.5L433 58.5L420 66.5M442 75.5L433.5 101.5L420 66.5M442 75.5L420 66.5M256 261L260.5 245L272 261H256ZM199.5 331L208.5 339H223L199.5 331ZM226.5 339V345L236 341L226.5 339ZM195 194L206.5 188L192.5 182L195 194ZM171 122.5L173.5 140L183.5 123.5L171 122.5ZM158 123.5L169.5 131L160 141.5L158 123.5ZM104 141L123.5 125L101.5 118L104 141ZM124 103L133 118L142.5 105.5L124 103ZM118.5 103L123.5 89L107.5 101.5L118.5 103ZM158 96V113L165.5 105.5L158 96ZM173 99V113L201.5 115.5L173 99ZM149 74L158 68L161.5 84.5L149 74ZM368 247.5L380 241.5L375.5 229.5L368 247.5ZM384 250.5L398.5 243.5L384 216.5V250.5ZM628 84.5L642.5 78L633.5 67L628 84.5ZM624 76L631 60.5L617 59L624 76ZM608.5 55.5H625L622.5 42L608.5 55.5ZM719.5 115.5V101.5L737.5 111L719.5 115.5ZM740.5 113L753 115.5L749.5 108L740.5 113ZM732 261L736 255.5L728.5 240L732 261ZM678.5 356H684.5L678.5 343.5V356ZM681.5 369.5L692 371.5L687.5 358.5L681.5 369.5ZM672 370.5L668 396.5L650.5 388L672 370.5ZM676.5 388V399.5L684.5 398.5L676.5 388ZM656 401.5L679 409.5L645 403.5L656 401.5ZM642 401.5V387.5L619.5 375.5L642 401.5ZM740 501.5L744 492H732L740 501.5ZM582.5 373.5L588 371.5L583.5 365L582.5 373.5ZM446 84L449 94.5L455.5 84H446ZM450.5 72L438.5 58.5L458.5 55.5L450.5 72Z" stroke="#5673A2"/>
</svg>
