<svg width="126" height="113" viewBox="0 0 126 113" fill="none" xmlns="http://www.w3.org/2000/svg">
<path d="M95.2861 90.3068C100.771 41.0436 25.9112 39.52 30.6852 90.3068C-13.1947 86.7518 -8.8778 21.1859 36.3733 24.9441C48.6637 -13.9586 106.002 -5.12168 105.545 35.9649C138.353 45.0557 129.313 93.1509 95.2861 90.3068ZM90.2074 80.1495C96.7589 113.466 44.4992 127.788 35.8654 90.3068C30.0757 53.9942 82.437 44.2432 90.1566 80.0987L90.2074 80.1495ZM79.6945 90.3068H46.2259C47.3599 93.8404 49.5865 96.9227 52.5848 99.1095C55.5832 101.296 59.1984 102.475 62.9094 102.475C66.6205 102.475 70.2357 101.296 73.234 99.1095C76.2324 96.9227 78.459 93.8404 79.5929 90.3068C79.5929 90.3068 79.6437 90.2561 79.6437 90.2053L79.6945 90.3068ZM79.6945 80.1495C78.6014 76.5702 76.3878 73.4365 73.3798 71.2099C70.3717 68.9833 66.7281 67.7815 62.9856 67.7815C59.2431 67.7815 55.5996 68.9833 52.5915 71.2099C49.5834 73.4365 47.3698 76.5702 46.2767 80.1495H79.6945Z" fill="url(#paint0_radial_28_1508)" fill-opacity="0.49"/>
<defs>
<radialGradient id="paint0_radial_28_1508" cx="0" cy="0" r="1" gradientUnits="userSpaceOnUse" gradientTransform="translate(62.9976 112.551) rotate(-86.3398) scale(112.781 67.9833)">
<stop stop-color="#20314C" stop-opacity="0.5"/>
<stop offset="1" stop-color="#222D43" stop-opacity="0.64"/>
</radialGradient>
</defs>
</svg>
