<svg width="12" height="12" viewBox="0 0 12 12" fill="none" xmlns="http://www.w3.org/2000/svg">
<path d="M7.25264 11.9995C7.65387 11.9995 8.00377 11.6496 8.00377 11.2484V9.4942H8.5053C8.80626 9.4942 9.00684 9.29354 9.00684 8.99266V3.98242H2.99316V8.9927C2.99316 9.29362 3.19378 9.49424 3.4947 9.49424H3.99628V11.2484C3.99628 11.6497 4.34609 11.9996 4.7474 11.9996C5.14859 11.9996 5.49844 11.6497 5.49844 11.2484V9.49424H6.50156V11.2484C6.50152 11.6496 6.85141 11.9995 7.25264 11.9995Z" fill="#536280"/>
<path d="M10.2594 8.9927C10.6607 8.9927 11.0105 8.64285 11.0105 8.24158V4.73323C11.0105 4.33412 10.6607 3.98242 10.2594 3.98242C9.85815 3.98242 9.5083 4.33412 9.5083 4.73323V8.24158C9.5083 8.64281 9.85811 8.9927 10.2594 8.9927Z" fill="#536280"/>
<path d="M1.74055 8.9927C2.14181 8.9927 2.49167 8.64285 2.49167 8.24158V4.73323C2.49167 4.33412 2.14186 3.98242 1.74055 3.98242C1.33932 3.98242 0.989502 4.33412 0.989502 4.73323V8.24158C0.989502 8.64281 1.33932 8.9927 1.74055 8.9927Z" fill="#536280"/>
<path d="M8.40495 0.075681C8.30469 -0.025227 8.15541 -0.025227 8.05514 0.075681L7.38246 0.746118L7.35143 0.777112C6.95256 0.577378 6.50536 0.477631 6.00735 0.47667C6.00491 0.47667 6.0025 0.47659 6.00006 0.47659H5.99998C5.99746 0.47659 5.99514 0.47667 5.99261 0.47667C5.49464 0.477631 5.04744 0.577378 4.64862 0.777112L4.6175 0.746118L3.94486 0.075681C3.84451 -0.025227 3.69532 -0.025227 3.59505 0.075681C3.4947 0.176028 3.4947 0.324948 3.59505 0.425215L4.24574 1.07603C4.03608 1.21602 3.84596 1.38732 3.68062 1.58325C3.2848 2.05244 3.03233 2.66305 2.99761 3.32464C2.99729 3.33152 2.99661 3.33833 2.99629 3.34522C2.99417 3.39027 2.99316 3.43556 2.99316 3.481H9.00684C9.00684 3.43556 9.00576 3.39027 9.00372 3.34522C9.0034 3.33833 9.00271 3.33152 9.00231 3.32464C8.96768 2.66305 8.71513 2.0524 8.3193 1.58329C8.15405 1.38736 7.96384 1.21606 7.75418 1.07607L8.40495 0.425255C8.5053 0.324948 8.5053 0.176028 8.40495 0.075681ZM4.74644 2.60531C4.53894 2.60531 4.37072 2.43709 4.37072 2.22959C4.37072 2.02208 4.53894 1.85386 4.74644 1.85386C4.95394 1.85386 5.12216 2.02208 5.12216 2.22959C5.12216 2.43709 4.95394 2.60531 4.74644 2.60531ZM7.25356 2.60531C7.04606 2.60531 6.87784 2.43709 6.87784 2.22959C6.87784 2.02208 7.04606 1.85386 7.25356 1.85386C7.46106 1.85386 7.62928 2.02208 7.62928 2.22959C7.62928 2.43709 7.46106 2.60531 7.25356 2.60531Z" fill="#536280"/>
</svg>
