<svg width="27" height="30" viewBox="0 0 27 30" fill="none" xmlns="http://www.w3.org/2000/svg">
<g filter="url(#filter0_b_78_1414)">
<path d="M25.8544 6.15756L14.4308 0.228296C13.8445 -0.0760986 13.1534 -0.0760986 12.5672 0.228296L1.14353 6.15756C0.439997 6.52304 -0.00412181 7.26259 2.88427e-05 8.07717C0.0176691 12.2154 0.965055 24.7846 11.517 29.5723C12.7726 30.1426 14.2264 30.1426 15.483 29.5723C26.0339 24.7846 26.9824 12.2144 27 8.07717C27.0021 7.26259 26.5579 6.52304 25.8544 6.15756ZM7.54694 15.9646H10.1235C10.2355 17.8617 10.6796 19.672 11.4371 20.8489C9.40643 20.0847 7.88833 18.2283 7.54694 15.9646ZM10.1235 14.0354H7.54694C7.88833 11.7717 9.40643 9.91533 11.4371 9.15112C10.6807 10.328 10.2366 12.1383 10.1235 14.0354ZM13.499 20.2658C13.0964 20.2658 12.1791 18.7588 11.9975 15.9646H14.9994C14.8189 18.7578 13.9016 20.2658 13.499 20.2658ZM11.9975 14.0354C12.178 11.2422 13.0964 9.73419 13.499 9.73419C13.9016 9.73419 14.8189 11.2412 15.0005 14.0354H11.9975ZM15.5608 20.8478C16.3183 19.671 16.7624 17.8607 16.8745 15.9636H19.45C19.1096 18.2283 17.5925 20.0836 15.5608 20.8478ZM16.8755 14.0354C16.7635 12.1383 16.3193 10.328 15.5618 9.15112C17.5926 9.91533 19.1096 11.7717 19.451 14.0354H16.8755Z" fill="#2E3B4E"/>
</g>
<defs>
<filter id="filter0_b_78_1414" x="-15.0057" y="-15.0057" width="57.0114" height="60.0114" filterUnits="userSpaceOnUse" color-interpolation-filters="sRGB">
<feFlood flood-opacity="0" result="BackgroundImageFix"/>
<feGaussianBlur in="BackgroundImageFix" stdDeviation="7.50286"/>
<feComposite in2="SourceAlpha" operator="in" result="effect1_backgroundBlur_78_1414"/>
<feBlend mode="normal" in="SourceGraphic" in2="effect1_backgroundBlur_78_1414" result="shape"/>
</filter>
</defs>
</svg>
