<svg width="12" height="12" viewBox="0 0 12 12" fill="none" xmlns="http://www.w3.org/2000/svg">
<path fill-rule="evenodd" clip-rule="evenodd" d="M3.63134 1.92572C3.85716 0.806002 4.84853 0 5.99997 0C7.15141 0 8.1428 0.806002 8.36856 1.92572L8.6384 3.26356C8.77944 3.96313 9.05736 4.62851 9.4564 5.22212L9.92072 5.91284C10.2105 6.34384 10.3999 6.83082 10.4783 7.3386C10.9398 7.37735 11.3442 7.67083 11.5184 8.10266L11.9118 9.07794C12.1101 9.56962 11.9666 10.132 11.5564 10.471L10.0491 11.7167C9.61024 12.0794 8.97752 12.0955 8.52048 11.7555L7.91354 11.3041C7.90551 11.2982 7.89758 11.2921 7.88973 11.2859C7.59179 11.366 7.27835 11.4088 6.95484 11.4088H5.0451C4.72161 11.4088 4.40819 11.3661 4.11026 11.2859C4.10242 11.2921 4.09449 11.2982 4.08646 11.3041L3.47954 11.7555C3.02249 12.0955 2.3898 12.0794 1.9509 11.7167L0.443568 10.471C0.0333741 10.132 -0.11008 9.56962 0.088225 9.07794L0.48162 8.10266C0.655772 7.67085 1.06022 7.37738 1.52158 7.33861C1.6 6.83082 1.78944 6.34384 2.07918 5.91284L2.5435 5.22212C2.94254 4.62851 3.22046 3.96313 3.36154 3.26356L3.63134 1.92572ZM8.6756 7.5807C8.5076 7.70636 8.37136 7.87507 8.28488 8.07506L7.67039 9.49706C7.36021 9.67834 7.00167 9.77898 6.62772 9.77898H5.37224C4.99831 9.77898 4.6398 9.67834 4.32963 9.49714L3.71509 8.07506C3.62865 7.87506 3.49242 7.70634 3.32437 7.58067C3.34497 7.32286 3.41512 7.06804 3.53482 6.83062L4.54143 4.83408L4.54746 4.84007C5.34972 5.63568 6.65043 5.63568 7.45268 4.84007L7.45859 4.8342L8.46512 6.83062C8.58488 7.06805 8.65496 7.32287 8.6756 7.5807ZM7.23255 3.41526V2.44474H6.41083V3.08571C6.58521 3.12099 6.75605 3.17898 6.91879 3.25967L7.23255 3.41526ZM5.58911 3.08575V2.44474H4.76739V3.41536L5.08136 3.25967C5.24403 3.17901 5.4148 3.12104 5.58911 3.08575ZM1.62604 8.14914C1.45804 8.14914 1.30696 8.25058 1.24457 8.4053L0.851176 9.38058C0.785072 9.5445 0.832888 9.73194 0.969624 9.84498L2.47696 11.0907C2.62326 11.2115 2.83415 11.2169 2.9865 11.1036L3.59343 10.6522C3.74504 10.5395 3.79921 10.3384 3.72456 10.1657L2.95981 8.3961C2.89507 8.24626 2.74653 8.14914 2.58217 8.14914H1.62604ZM10.7554 8.4053C10.693 8.25058 10.542 8.14914 10.3739 8.14914H9.41784C9.25344 8.14914 9.10496 8.24626 9.04016 8.3961L8.27544 10.1657C8.2008 10.3384 8.25496 10.5395 8.40656 10.6522L9.01352 11.1036C9.16584 11.2169 9.37672 11.2115 9.52304 11.0907L11.0304 9.84498C11.1671 9.73194 11.215 9.5445 11.1488 9.38058L10.7554 8.4053ZM5.44885 3.98855C5.79585 3.81649 6.2043 3.81649 6.5513 3.98855L6.94991 4.18621L6.87164 4.26383C6.39029 4.7412 5.60986 4.7412 5.12851 4.26383L5.05023 4.18621L5.44885 3.98855Z" fill="#536280"/>
</svg>
