<svg width="15" height="20" viewBox="0 0 15 20" fill="none" xmlns="http://www.w3.org/2000/svg">
<g filter="url(#filter0_b_160_600)">
<path fill-rule="evenodd" clip-rule="evenodd" d="M12.9822 8.05265V6.19969C12.9822 3.24339 10.5855 0.84668 7.62923 0.84668C4.67293 0.84668 2.27623 3.24339 2.27623 6.19969V8.05265H1.86446C1.06826 8.05265 0.423261 8.69765 0.423261 9.49385V17.9351C0.423261 18.7313 1.06826 19.3763 1.86446 19.3763H13.394C14.1902 19.3763 14.8352 18.7313 14.8352 17.9351V9.49385C14.8352 8.69765 14.1902 8.05265 13.394 8.05265H12.9822ZM10.5116 6.19969C10.5116 4.60809 9.22083 3.3173 7.62923 3.3173C6.03764 3.3173 4.74684 4.60809 4.74684 6.19969V8.05265H10.5116V6.19969ZM6.90864 13.4524C6.53708 13.2152 6.29098 12.7985 6.29098 12.3248C6.29098 11.5858 6.89015 10.9866 7.62923 10.9866C8.36832 10.9866 8.96748 11.5858 8.96748 12.3248C8.96748 12.7985 8.72139 13.2151 8.34983 13.4524V15.7219C8.34983 16.12 8.02733 16.4425 7.62923 16.4425C7.23113 16.4425 6.90864 16.12 6.90864 15.7219V13.4524Z" fill="#1A2941" fill-opacity="0.49"/>
</g>
<defs>
<filter id="filter0_b_160_600" x="-9.17407" y="-8.75073" width="33.6067" height="37.7241" filterUnits="userSpaceOnUse" color-interpolation-filters="sRGB">
<feFlood flood-opacity="0" result="BackgroundImageFix"/>
<feGaussianBlur in="BackgroundImageFix" stdDeviation="4.7987"/>
<feComposite in2="SourceAlpha" operator="in" result="effect1_backgroundBlur_160_600"/>
<feBlend mode="normal" in="SourceGraphic" in2="effect1_backgroundBlur_160_600" result="shape"/>
</filter>
</defs>
</svg>
