<svg width="28" height="30" viewBox="0 0 28 30" fill="none" xmlns="http://www.w3.org/2000/svg">
<g filter="url(#filter0_b_78_1419)">
<path d="M21.8769 4.06152H7.13897C5.43613 4.06152 4.05652 5.44264 4.05652 7.14733V25.6836C4.05652 27.3883 5.43613 28.7694 7.13897 28.7694H16.6517C16.5972 28.508 16.5683 28.2379 16.5683 27.9615V24.7975C16.5683 23.681 17.0317 22.6449 17.8119 21.9099V20.5588C17.8119 17.5587 20.2501 15.119 23.2469 15.119C23.8484 15.119 24.4178 15.2411 24.9594 15.4222V7.14733C24.9594 5.44264 23.5798 4.06152 21.8769 4.06152ZM14.5079 19.6213H9.28384C8.7519 19.6213 8.32057 19.1895 8.32057 18.657C8.32057 18.1244 8.7519 17.6926 9.28384 17.6926H14.5079C15.0399 17.6926 15.4712 18.1244 15.4712 18.657C15.4712 19.1895 15.0399 19.6213 14.5079 19.6213ZM19.731 15.1361H9.28277C8.75083 15.1361 8.3195 14.7043 8.3195 14.1718C8.3195 13.6393 8.75083 13.2075 9.28277 13.2075H19.731C20.2629 13.2075 20.6942 13.6393 20.6942 14.1718C20.6942 14.7043 20.264 15.1361 19.731 15.1361Z" fill="#2E3B4E"/>
<path d="M26.7553 22.9164V20.5571C26.7553 18.6209 25.1809 17.0459 23.2469 17.0459C21.3128 17.0459 19.7384 18.622 19.7384 20.5571V22.9164C19.0074 23.2261 18.4948 23.9515 18.4948 24.7958V27.9587C18.4948 29.0859 19.4077 29.9998 20.5337 29.9998H25.9611C27.0871 29.9998 28 29.0859 28 27.9587V24.7958C27.999 23.9515 27.4863 23.2272 26.7553 22.9164ZM23.2469 18.9756C24.1181 18.9756 24.8288 19.6849 24.8288 20.5581V22.7568H21.666V20.5581C21.665 19.6849 22.3746 18.9756 23.2469 18.9756Z" fill="#2E3B4E"/>
<path d="M2.12989 7.14664C2.12989 4.38227 4.37751 2.13221 7.13886 2.13221H20.738C20.3345 0.897884 19.1872 0 17.8204 0H3.08245C1.38068 0 0 1.38218 0 3.0858V21.6221C0 22.9903 0.896907 24.1389 2.12989 24.5418V7.14664Z" fill="#2E3B4E"/>
</g>
<defs>
<filter id="filter0_b_78_1419" x="-15.0057" y="-15.0057" width="58.0114" height="60.0114" filterUnits="userSpaceOnUse" color-interpolation-filters="sRGB">
<feFlood flood-opacity="0" result="BackgroundImageFix"/>
<feGaussianBlur in="BackgroundImageFix" stdDeviation="7.50286"/>
<feComposite in2="SourceAlpha" operator="in" result="effect1_backgroundBlur_78_1419"/>
<feBlend mode="normal" in="SourceGraphic" in2="effect1_backgroundBlur_78_1419" result="shape"/>
</filter>
</defs>
</svg>
