<svg width="11" height="12" viewBox="0 0 11 12" fill="none" xmlns="http://www.w3.org/2000/svg">
<path d="M1.10688 4.41152C0.0723815 6.17194 0.730033 8.84346 1.87402 10.4633C2.44505 11.2731 3.02319 12.0001 3.81504 12.0001C3.82997 12.0001 3.84493 11.9998 3.86026 11.9992C4.23229 11.9847 4.50114 11.8723 4.76108 11.7638C5.05291 11.6418 5.35474 11.5157 5.82816 11.5157C6.27855 11.5157 6.56597 11.6377 6.84392 11.7557C7.11786 11.8719 7.40003 11.9921 7.81696 11.9845C8.70891 11.9682 9.25656 11.1838 9.73972 10.4917C10.2439 9.7692 10.4968 9.06768 10.5822 8.79959L10.5856 8.78893C10.6019 8.74129 10.5789 8.68927 10.5323 8.6683C10.5311 8.66771 10.5263 8.66579 10.525 8.66523C10.3679 8.60225 8.99012 8.00285 8.97563 6.36916C8.96219 5.04188 10.0093 4.33901 10.2192 4.21162L10.229 4.20564C10.2518 4.19128 10.2676 4.1685 10.273 4.14246C10.2784 4.11645 10.2728 4.08938 10.2575 4.06751C9.53479 3.03034 8.42707 2.87403 7.98109 2.85522C7.91638 2.84889 7.84958 2.8457 7.7825 2.8457C7.25869 2.8457 6.7569 3.0397 6.35377 3.19558C6.0755 3.30319 5.83514 3.39611 5.66936 3.39611C5.48308 3.39611 5.24136 3.30205 4.96144 3.19314C4.58712 3.04746 4.16284 2.88237 3.7137 2.88237C3.70299 2.88237 3.69243 2.88249 3.68204 2.88269C2.63771 2.89775 1.65091 3.48365 1.10688 4.41152Z" fill="#536280"/>
<path d="M7.98243 7.55954e-05C7.35001 0.0253339 6.59138 0.407081 6.13794 0.927907C5.75258 1.36568 5.37614 2.09557 5.47531 2.83129C5.48153 2.87732 5.51973 2.91285 5.56695 2.91643C5.60964 2.9197 5.65321 2.92135 5.69662 2.92139C6.31499 2.92139 6.98207 2.58591 7.43764 2.04573C7.91711 1.47533 8.15956 0.743308 8.08622 0.0876143C8.08044 0.036232 8.03435 -0.00193091 7.98243 7.55954e-05Z" fill="#536280"/>
</svg>
