<svg width="104" height="105" viewBox="0 0 104 105" fill="none" xmlns="http://www.w3.org/2000/svg">
<path fill-rule="evenodd" clip-rule="evenodd" d="M19.0841 66.7066C25.2121 66.7066 30.4646 69.508 33.9663 73.8851L66.532 57.4272C65.4815 53.5753 65.4815 50.774 66.7071 47.0972L34.3165 30.4642C30.8148 35.1915 25.3872 38.1679 19.0841 38.1679C8.57908 38.1679 -5.34058e-05 29.5888 -5.34058e-05 19.0837C-5.34058e-05 8.57866 8.57908 -0.000473022 19.0841 -0.000473022C31.8653 -0.000473022 40.7946 11.9053 37.468 23.9861L69.8586 40.6191C73.3603 36.242 78.7879 33.2655 84.9158 33.2655C95.4209 33.2655 104 41.8447 104 52.3497C104 63.0299 95.4209 71.609 84.9158 71.609C78.6128 71.609 73.1852 68.4575 69.6835 63.9053L37.2929 80.3632C40.9697 92.6191 32.0404 104.875 19.0841 104.875C8.57908 104.875 -5.34058e-05 96.2959 -5.34058e-05 85.7908C-5.34058e-05 75.1107 8.57908 66.7066 19.0841 66.7066Z" fill="url(#paint0_radial_28_1519)" fill-opacity="0.49"/>
<defs>
<radialGradient id="paint0_radial_28_1519" cx="0" cy="0" r="1" gradientUnits="userSpaceOnUse" gradientTransform="translate(52 -0.000486561) rotate(93.2432) scale(105.044 56.1401)">
<stop stop-color="#20314C" stop-opacity="0.5"/>
<stop offset="1" stop-color="#222D43" stop-opacity="0.64"/>
</radialGradient>
</defs>
</svg>
