<svg width="22" height="34" viewBox="0 0 22 34" fill="none" xmlns="http://www.w3.org/2000/svg">
<path d="M11 0C4.96285 0 0 4.85043 0 11.7692C0 14.2383 0.564482 15.9558 1.61298 17.8581L10.2596 33.5504C10.3328 33.6866 10.4401 33.8001 10.5703 33.8792C10.7005 33.9583 10.8489 34 11 34C11.1511 34 11.2995 33.9583 11.4297 33.8792C11.5599 33.8001 11.6672 33.6866 11.7404 33.5504L20.387 17.8581C21.4355 15.9558 22 14.2382 22 11.7692C22 4.85043 17.0372 0 11 0ZM11 6.10254C13.8039 6.10254 16.0769 8.44443 16.0769 11.3333C16.0769 14.2221 13.8039 16.564 11 16.564C8.19609 16.564 5.92308 14.2221 5.92308 11.3333C5.92308 8.44443 8.19609 6.10254 11 6.10254Z" fill="#D7E6FF"/>
</svg>
