<svg width="106" height="106" viewBox="0 0 106 106" fill="none" xmlns="http://www.w3.org/2000/svg">
<g filter="url(#filter0_b_28_1499)">
<path d="M83.5239 48.6725C82.1154 47.4824 81.682 45.4269 82.4404 43.6959L83.0905 42.1812C84.0657 39.8011 82.7655 36.9882 80.2735 36.3391L78.6483 35.9063C76.8064 35.3654 75.6145 33.8508 75.5062 31.9034L75.3978 30.1724C75.2895 27.7922 73.3392 26.0612 71.0639 26.0612C70.8472 26.0612 70.5222 26.0612 70.3055 26.1694L68.572 26.494C68.3553 26.494 68.0302 26.6022 67.8135 26.6022C66.1883 26.6022 64.7798 25.7367 64.0214 24.3302L63.2629 22.7074C62.5045 21.1928 60.9876 20.4355 59.4708 20.4355C58.604 20.4355 57.7372 20.6519 56.9788 21.1928L55.5702 22.1665C54.8118 22.7074 53.945 22.9238 53.0783 22.9238C52.2115 22.9238 51.3447 22.5992 50.5863 22.0583L49.1777 21.0846C48.4193 20.5437 47.5525 20.2191 46.6857 20.2191C45.1689 20.2191 43.652 20.9764 42.8936 22.491L42.0268 24.0057C41.2684 25.4121 39.7515 26.2776 38.2346 26.2776C38.0179 26.2776 37.6929 26.2776 37.4762 26.1694L35.7426 25.8449C35.526 25.8449 35.2009 25.7367 34.9842 25.7367C32.7089 25.7367 30.7587 27.4677 30.6503 29.8478L30.542 31.5788C30.4336 33.418 29.1334 35.0408 27.3999 35.4736L25.7747 35.9063C23.2827 36.5555 21.9825 39.3683 22.9576 41.7485L23.6077 43.3713C24.3662 45.1023 23.8244 47.0497 22.4159 48.3479L21.1157 49.4298C19.1655 51.1608 19.1655 54.1901 21.1157 55.9211L22.4159 57.0029C23.8244 58.193 24.2578 60.2486 23.4994 61.9796L22.8493 63.8188C21.8742 66.1989 23.1743 69.0118 25.6663 69.6609L27.2915 70.0937C29.1334 70.6346 30.3253 72.1492 30.4336 74.0966L30.542 75.8276C30.6503 78.2078 32.6006 79.9388 34.8759 79.9388C35.0926 79.9388 35.4176 79.9388 35.6343 79.8306L37.3679 79.506C37.5846 79.506 37.9096 79.3978 38.1263 79.3978C39.7515 79.3978 41.16 80.2633 41.9185 81.6698L42.6769 83.1844C43.4353 84.699 44.9522 85.4563 46.4691 85.4563C47.3358 85.4563 48.2026 85.24 48.961 84.699L50.3696 83.7253C51.128 83.1844 51.9948 82.968 52.8616 82.968C53.7283 82.968 54.5951 83.2926 55.3536 83.8335L56.7621 84.8072C57.5205 85.3482 58.3873 85.6727 59.2541 85.6727C60.7709 85.6727 62.2878 84.9154 63.0462 83.4008L63.913 81.8861C64.6714 80.4797 66.1883 79.6142 67.7052 79.6142C67.9219 79.6142 68.2469 79.6142 68.4636 79.7224L70.0888 80.047C70.3055 80.047 70.6305 80.1551 70.8472 80.1551C73.1225 80.1551 75.0728 78.4241 75.1811 76.044L75.2895 74.313C75.3978 72.4738 76.698 70.851 78.4316 70.4182L80.0568 69.9855C82.5488 69.3364 83.8489 66.5235 82.8738 64.1433L82.2237 62.5205C81.4653 60.7895 82.007 58.8421 83.4156 57.5439L84.7157 56.462C86.666 54.731 86.666 51.7017 84.7157 49.9707L83.5239 48.6725ZM67.4885 50.7281L60.7709 56.1374L62.8295 64.3597C63.1546 65.5498 62.1794 66.6317 61.096 66.6317C60.7709 66.6317 60.4459 66.5235 60.1208 66.3071L52.7532 61.8714L45.4939 66.3071C45.1689 66.5235 44.8438 66.6317 44.5188 66.6317C43.4353 66.6317 42.4602 65.658 42.7852 64.3597L44.8438 56.1374L38.2346 50.7281C37.0428 49.6462 37.6929 47.6988 39.3181 47.5906L47.8776 46.9415L51.128 39.0438C51.453 38.2865 52.1031 37.9619 52.7532 37.9619C53.4033 37.9619 54.1617 38.2865 54.3784 39.0438L57.6288 46.9415L66.1883 47.5906C68.0302 47.5906 68.7887 49.6462 67.4885 50.7281ZM34.2258 86.3218L14.9399 105.687C14.2898 106.337 13.2064 105.904 13.098 105.038L11.9062 94.4359C11.9062 94.1114 11.5811 93.7868 11.2561 93.7868L0.963089 92.8131C0.0963089 92.7049 -0.337081 91.623 0.313004 90.9739L18.7321 72.582C20.1406 74.0966 21.8742 75.2867 23.9328 75.8276H24.1495V76.044C24.3662 81.6698 28.8084 85.9973 34.2258 86.3218ZM105.735 15.0261L87.3161 33.418C85.9076 31.9034 84.174 30.7133 82.1154 30.1724H81.8987V29.956C81.682 24.4384 77.2398 20.0027 71.714 19.6782L90.9999 0.312543C91.65 -0.336584 92.7334 0.0961669 92.8418 0.961669L94.0336 11.5641C94.0336 11.8886 94.3587 12.2132 94.6837 12.2132L105.085 13.1869C105.952 13.2951 106.277 14.377 105.735 15.0261Z" fill="url(#paint0_radial_28_1499)" fill-opacity="0.49"/>
</g>
<defs>
<filter id="filter0_b_28_1499" x="-40.4" y="-40.4" width="186.8" height="186.8" filterUnits="userSpaceOnUse" color-interpolation-filters="sRGB">
<feFlood flood-opacity="0" result="BackgroundImageFix"/>
<feGaussianBlur in="BackgroundImageFix" stdDeviation="20.2"/>
<feComposite in2="SourceAlpha" operator="in" result="effect1_backgroundBlur_28_1499"/>
<feBlend mode="normal" in="SourceGraphic" in2="effect1_backgroundBlur_28_1499" result="shape"/>
</filter>
<radialGradient id="paint0_radial_28_1499" cx="0" cy="0" r="1" gradientUnits="userSpaceOnUse" gradientTransform="translate(53 106) rotate(-86.7295) scale(106.173 57.2181)">
<stop stop-color="#20314C" stop-opacity="0.5"/>
<stop offset="1" stop-color="#222D43" stop-opacity="0.64"/>
</radialGradient>
</defs>
</svg>
