<svg width="15" height="11" viewBox="0 0 15 11" fill="none" xmlns="http://www.w3.org/2000/svg">
<path d="M7.18697 10.7665C8.11002 10.7665 8.85831 10.0182 8.85831 9.09517C8.85831 8.17211 8.11002 7.42383 7.18697 7.42383C6.26391 7.42383 5.51562 8.17211 5.51562 9.09517C5.51562 10.0182 6.26391 10.7665 7.18697 10.7665Z" fill="#536280"/>
<path d="M11.1813 5.06829C11.1565 5.0428 11.1303 5.02006 11.1048 4.99664L11.0297 4.92568C11.0173 4.91259 11.0036 4.90295 10.9877 4.89055C8.82655 2.9271 5.519 3.00495 3.45635 5.0676L3.21454 5.3101L2.87972 5.64492C2.47187 6.05277 2.47394 6.71758 2.88247 7.12612C3.2917 7.53603 3.95651 7.53672 4.36367 7.12887L4.94099 6.55155C6.25271 5.24052 8.38632 5.24052 9.69735 6.55086L10.1142 6.95457C10.5179 7.35829 11.1765 7.3576 11.5823 6.95113C11.7786 6.75547 11.8868 6.49437 11.8875 6.21673C11.8881 5.94047 11.7814 5.67937 11.585 5.4844L11.1813 5.06829Z" fill="#536280"/>
<path d="M14.0287 3.00213L13.6815 2.65491C13.6801 2.65353 13.6795 2.65146 13.6767 2.65078L13.4025 2.3752C13.3543 2.32767 13.3019 2.28633 13.2468 2.25051C9.72431 -0.842091 4.36652 -0.747019 0.956324 2.53366C0.939789 2.54881 0.921188 2.55915 0.904654 2.57568L0.277729 3.2033C-0.0942922 3.57463 -0.0922254 4.17882 0.281863 4.55291C0.655262 4.92631 1.25945 4.92906 1.63147 4.55635L2.2584 3.93012C2.26253 3.9246 2.26598 3.91978 2.27011 3.91634C5.02789 1.25225 9.40259 1.23572 12.1824 3.86191L12.6757 4.35587C13.047 4.72721 13.6526 4.72583 14.026 4.35243C14.3987 3.97834 14.4001 3.37346 14.0287 3.00213Z" fill="#536280"/>
</svg>
