<svg width="18" height="25" viewBox="0 0 18 25" fill="none" xmlns="http://www.w3.org/2000/svg">
<path d="M17.8122 11.8062L12.8454 20.6391C11.6289 22.8133 9.33832 24.1602 6.87993 24.1602C3.08753 24.1602 0 21.0227 0 17.169V5.61674C0 4.97743 0.520168 4.44861 1.14954 4.44861H1.28368C1.92137 4.44861 2.44153 4.97719 2.44153 5.61674V10.4253C2.44153 10.6642 2.62624 10.8516 2.86104 10.8516C3.08753 10.8516 3.28054 10.6642 3.28054 10.4253V3.1613C3.28054 2.51331 3.7924 1.99317 4.43009 1.99317H4.56446C5.20215 1.99317 5.71401 2.51331 5.71401 3.1613V9.69193C5.71401 9.93077 5.90702 10.1182 6.13351 10.1182C6.36855 10.1182 6.55302 9.93077 6.55302 9.69193V1.32829C6.55302 0.688976 7.07318 0.160156 7.70256 0.160156H7.83694C8.47462 0.160156 8.99455 0.688734 8.99455 1.32829V9.9479C8.99455 10.178 9.17926 10.3742 9.41406 10.3742C9.64055 10.3742 9.83356 10.178 9.83356 9.9479V2.85419C9.83356 2.21488 10.3454 1.68606 10.9831 1.68606H11.1172C11.7549 1.68606 12.2668 2.21464 12.2668 2.85419V12.7271C12.2668 12.9488 12.4429 13.1363 12.6611 13.1534C12.8708 13.1705 13.0638 13.2472 13.2231 13.3835C13.3154 13.4603 13.4413 13.4943 13.5671 13.4774C13.6929 13.4518 13.8021 13.3751 13.8608 13.2644L15.413 10.3911C15.7904 9.7175 16.6463 9.48735 17.3092 9.87962C17.6278 10.0671 17.8545 10.3742 17.9552 10.7322C18.047 11.0987 17.9969 11.4822 17.8122 11.8062Z" fill="#425373"/>
</svg>
