<svg width="24" height="25" viewBox="0 0 24 25" fill="none" xmlns="http://www.w3.org/2000/svg">
<path fill-rule="evenodd" clip-rule="evenodd" d="M22.1637 4.80557L23.8597 7.69404C24.1494 8.1867 23.9757 8.82211 23.4746 9.10607L22.8803 9.44357C21.9703 9.96028 21.4494 10.8471 21.4494 11.8805V13.1187C21.4494 14.1522 21.9703 15.0389 22.8803 15.5557L23.4746 15.8932C23.9757 16.1771 24.1486 16.8125 23.8597 17.3052L22.1637 20.1937C21.874 20.6863 21.2284 20.8562 20.7273 20.5723L20.1322 20.2348C19.2214 19.7181 18.1789 19.7181 17.2689 20.2355L16.179 20.8547C15.2698 21.3714 14.7489 22.2582 14.7489 23.2908V23.9658C14.7489 24.5345 14.2753 25 13.6968 25H10.3047C9.72624 25 9.2527 24.5345 9.2527 23.9658V23.2908C9.2527 22.2582 8.7326 21.3714 7.82262 20.8547L6.7327 20.2355C5.82193 19.7181 4.77936 19.7181 3.86859 20.2348L3.27272 20.573C2.77156 20.857 2.12519 20.6871 1.83633 20.1944L0.140279 17.306C-0.149367 16.8133 0.0242628 16.1779 0.525422 15.8939L1.11971 15.5564C2.03048 15.0397 2.55058 14.1529 2.55058 13.1195V11.8805C2.55058 10.8478 2.02969 9.96028 1.11971 9.44357L0.525422 9.10607C0.0242628 8.82134 -0.148578 8.1867 0.140279 7.69404L1.83633 4.80557C2.12598 4.31291 2.77156 4.143 3.27272 4.42696L3.86859 4.76523C4.77936 5.28194 5.82193 5.28194 6.7327 4.76445L7.82262 4.14533C8.7326 3.62862 9.2527 2.74183 9.2527 1.70918V1.0342C9.2527 0.465506 9.72624 0 10.3047 0H13.6968C14.2753 0 14.7489 0.465506 14.7489 1.0342V1.70918C14.7489 2.74183 15.269 3.62862 16.179 4.14533L17.2689 4.76445C18.1797 5.28194 19.2222 5.28194 20.133 4.76523L20.7289 4.42696C21.23 4.143 21.8764 4.31291 22.1652 4.80557H22.1637ZM12 7.2456C14.9517 7.2456 17.3447 9.59796 17.3447 12.4996C17.3447 15.4013 14.9517 17.7536 12 17.7536C9.04829 17.7536 6.65535 15.4013 6.65535 12.4996C6.65535 9.59796 9.04829 7.2456 12 7.2456Z" fill="#425373"/>
</svg>
