<svg width="24" height="22" viewBox="0 0 24 22" fill="none" xmlns="http://www.w3.org/2000/svg">
<path d="M15.2923 0.227204C15.1593 0.111124 14.9955 0.0356728 14.8206 0.00988058C14.6457 -0.0159117 14.467 0.00904669 14.306 0.0817692C14.1449 0.154492 14.0083 0.271898 13.9125 0.419942C13.8167 0.567985 13.7657 0.740395 13.7657 0.916542V4.61806C4.63886 4.98015 0 10.5031 0 21.0833C1.0962e-05 21.2925 0.071849 21.4954 0.203586 21.6583C0.335324 21.8212 0.519035 21.9344 0.724217 21.9789C0.788646 21.9927 0.854334 21.9997 0.920226 22C1.09674 22 1.26953 21.9495 1.41801 21.8544C1.56649 21.7593 1.68438 21.6237 1.75763 21.4637C1.79996 21.3721 5.89865 12.6334 13.7657 11.9615V15.5833C13.7657 15.7594 13.8167 15.9319 13.9125 16.0799C14.0083 16.2279 14.1449 16.3453 14.306 16.4181C14.467 16.4908 14.6457 16.5157 14.8206 16.49C14.9955 16.4642 15.1593 16.3887 15.2923 16.2726L23.6884 8.93926C23.7864 8.85323 23.8648 8.74744 23.9185 8.62891C23.9722 8.51037 24 8.38181 24 8.25175C24 8.1217 23.9722 7.99313 23.9185 7.8746C23.8648 7.75606 23.7864 7.65027 23.6884 7.56425L15.2923 0.227204Z" fill="#425373"/>
</svg>
