<svg width="24" height="24" viewBox="0 0 24 24" fill="none" xmlns="http://www.w3.org/2000/svg">
<path d="M6.11987 18.8868C6.49075 20.47 7.14685 21.9743 8.05455 23.325C5.62321 22.5572 3.52268 20.9934 2.09433 18.8868H6.11987ZM15.7758 23.3942C18.2234 22.5767 20.3435 20.9966 21.8226 18.8868H17.8143C17.4033 20.496 16.7139 22.0219 15.7758 23.3942ZM18.2223 6.84358C18.8513 10.2522 18.8513 13.7478 18.2223 17.1564H22.8377C24.3874 13.8926 24.3874 10.1074 22.8377 6.84358H18.2223ZM17.8145 5.11323H21.8228C20.3426 3.00653 18.2224 1.42857 15.776 0.614341C16.7162 1.98239 17.4057 3.50609 17.8145 5.11323ZM12.0017 0C10.1018 0.147079 8.73109 2.24081 7.91544 5.11323H16.0097C15.0381 1.94657 13.4681 0.0260244 12.0017 0ZM2.08541 5.11323H6.11951C6.4893 3.53214 7.13782 2.02879 8.03681 0.674972C5.60872 1.44388 3.51155 3.0077 2.08541 5.11323ZM1.1224 6.84358C-0.374135 10.1193 -0.374135 13.8807 1.1224 17.1564H5.73784C5.15656 13.7434 5.15656 10.2566 5.73784 6.84358H1.1224ZM12.0104 24C13.5373 23.9892 15.0209 22.0642 16.0098 18.8868H7.91549C8.731 21.7591 10.1018 23.8616 12.0104 24ZM7.50767 6.84358C6.88302 10.2533 6.88302 13.7467 7.50767 17.1564H16.4523C17.1258 13.7519 17.1258 10.2481 16.4523 6.84358H7.50767Z" fill="#425373"/>
</svg>
